<svg xmlns="http://www.w3.org/2000/svg" xmlns:xlink="http://www.w3.org/1999/xlink" width="500" zoomAndPan="magnify" viewBox="0 0 375 374.999991" height="500" preserveAspectRatio="xMidYMid meet" version="1.0"><defs><clipPath id="806197efd0"><path d="M 0 0 L 328.5 0 L 328.5 375 L 0 375 Z M 0 0 " clip-rule="nonzero"/></clipPath></defs><path fill="#ffffff" d="M 227.816406 175.828125 C 221.273438 175.359375 215.675781 179.992188 215.082031 186.441406 C 215.082031 186.441406 204.460938 303.238281 204.425781 303.621094 C 203.070312 318.511719 226.375 320.886719 227.773438 305.75 L 238.425781 188.558594 C 239.011719 182.117188 234.261719 176.417969 227.816406 175.828125 Z M 227.816406 175.828125 " fill-opacity="1" fill-rule="nonzero"/><path fill="#ffffff" d="M 100.308594 175.828125 C 93.863281 176.417969 89.113281 182.117188 89.699219 188.558594 C 89.699219 188.558594 100.328125 305.492188 100.351562 305.75 C 101.714844 320.746094 125.070312 318.75 123.699219 303.625 L 113.042969 186.441406 C 112.449219 179.992188 106.863281 175.375 100.308594 175.828125 Z M 100.308594 175.828125 " fill-opacity="1" fill-rule="nonzero"/><g clip-path="url(#806197efd0)"><path fill="#ffffff" d="M 292.96875 46.875 L 234.375 46.875 L 234.375 35.15625 C 234.375 15.769531 218.605469 0 199.21875 0 L 128.90625 0 C 109.519531 0 93.75 15.769531 93.75 35.15625 L 93.75 46.875 L 35.15625 46.875 C 15.769531 46.875 0 62.644531 0 82.03125 L 0 105.46875 C 0 121.832031 11.285156 135.496094 26.445312 139.402344 L 44.941406 343.082031 C 46.703125 361.277344 61.785156 375 80.039062 375 L 248.085938 375 C 266.339844 375 281.421875 361.277344 283.195312 343.015625 L 301.679688 139.402344 C 316.839844 135.496094 328.125 121.832031 328.125 105.46875 L 328.125 82.03125 C 328.125 62.644531 312.355469 46.875 292.96875 46.875 Z M 117.1875 35.15625 C 117.1875 28.695312 122.441406 23.4375 128.90625 23.4375 L 199.21875 23.4375 C 205.683594 23.4375 210.9375 28.695312 210.9375 35.15625 L 210.9375 46.875 L 117.1875 46.875 Z M 259.859375 340.816406 C 259.265625 346.949219 254.207031 351.5625 248.085938 351.5625 L 80.039062 351.5625 C 73.917969 351.5625 68.859375 346.949219 68.277344 340.886719 L 50.09375 140.625 L 278.03125 140.625 Z M 304.6875 105.46875 C 304.6875 111.929688 299.433594 117.1875 292.96875 117.1875 L 35.15625 117.1875 C 28.691406 117.1875 23.4375 111.929688 23.4375 105.46875 L 23.4375 82.03125 C 23.4375 75.570312 28.691406 70.3125 35.15625 70.3125 L 292.96875 70.3125 C 299.433594 70.3125 304.6875 75.570312 304.6875 82.03125 Z M 304.6875 105.46875 " fill-opacity="1" fill-rule="nonzero"/></g><path fill="#ffffff" d="M 164.0625 175.78125 C 157.585938 175.78125 152.34375 181.027344 152.34375 187.5 C 152.34375 187.5 152.34375 304.335938 152.34375 304.6875 C 152.34375 319.675781 175.78125 319.894531 175.78125 304.6875 L 175.78125 187.5 C 175.78125 181.027344 170.539062 175.78125 164.0625 175.78125 Z M 164.0625 175.78125 " fill-opacity="1" fill-rule="nonzero"/></svg>