<svg xmlns="http://www.w3.org/2000/svg" xmlns:xlink="http://www.w3.org/1999/xlink" width="500" zoomAndPan="magnify" viewBox="0 0 375 374.999991" height="500" preserveAspectRatio="xMidYMid meet" version="1.0"><defs><clipPath id="0e927e2b2d"><path d="M 8.984375 8.984375 L 365.984375 8.984375 L 365.984375 365.984375 L 8.984375 365.984375 Z M 8.984375 8.984375 " clip-rule="nonzero"/></clipPath></defs><rect x="-37.5" width="450" fill="#ffffff" y="-37.499999" height="449.999989" fill-opacity="1"/><rect x="-37.5" width="450" fill="#000000" y="-37.499999" height="449.999989" fill-opacity="1"/><g clip-path="url(#0e927e2b2d)"><path fill="#ffffff" d="M 187.496094 8.984375 C 286.089844 8.984375 366.007812 88.902344 366.007812 187.496094 C 366.007812 286.089844 286.089844 366.007812 187.496094 366.007812 C 88.902344 366.007812 8.984375 286.089844 8.984375 187.496094 L 44.6875 187.496094 C 44.6875 266.363281 108.628906 330.304688 187.496094 330.304688 C 266.363281 330.304688 330.304688 266.363281 330.304688 187.496094 C 330.304688 108.628906 266.363281 44.6875 187.496094 44.6875 C 143.511719 44.6875 104.167969 64.574219 77.980469 95.832031 L 116.089844 133.941406 L 8.984375 133.941406 L 8.984375 26.835938 L 52.667969 70.5 C 85.386719 32.832031 133.65625 8.984375 187.496094 8.984375 Z M 205.347656 98.242188 L 205.347656 180.089844 L 263.238281 237.980469 L 237.980469 263.238281 L 169.644531 194.867188 L 169.644531 98.242188 Z M 205.347656 98.242188 " fill-opacity="1" fill-rule="nonzero"/></g></svg>